<svg xmlns="http://www.w3.org/2000/svg" width="12.434" height="17.683" viewBox="0 0 12.434 17.683"><defs><style>.a{fill:#0c5060;}</style></defs><g transform="translate(-836 -15455)"><g transform="translate(836 15455)"><path class="a" d="M82.217,0a6.218,6.218,0,0,0-5.289,9.486l4.935,7.952a.518.518,0,0,0,.44.245h0a.518.518,0,0,0,.44-.252L87.557,9.4A6.218,6.218,0,0,0,82.217,0Zm4.451,8.87L82.3,16.17,77.809,8.94a5.184,5.184,0,1,1,8.859-.07Z" transform="translate(-76 0)"/><g transform="translate(3.108 3.108)"><path class="a" d="M169.108,90a3.108,3.108,0,1,0,3.108,3.108A3.112,3.112,0,0,0,169.108,90Zm0,5.188a2.079,2.079,0,1,1,2.076-2.079A2.081,2.081,0,0,1,169.108,95.188Z" transform="translate(-166 -90)"/></g></g></g></svg>