<svg xmlns="http://www.w3.org/2000/svg" width="22.15" height="22.15" viewBox="0 0 22.15 22.15"><defs><style>.a{fill:#0c5060;}</style></defs><path class="a" d="M-1809.354,1225.8a10.833,10.833,0,0,0-9.3-7.449,2.964,2.964,0,0,1-.329-.081h-1.674a19.565,19.565,0,0,0-2.339.491,10.849,10.849,0,0,0-7.816,9.375c-.018.125-.055.248-.083.372v1.674a19.967,19.967,0,0,0,.609,2.709,10.827,10.827,0,0,0,9.3,7.448,3.133,3.133,0,0,1,.329.081h1.674c.8-.162,1.612-.265,2.388-.5a11,11,0,0,0,7.766-9.365,3.066,3.066,0,0,1,.084-.376V1228.5A19.951,19.951,0,0,0-1809.354,1225.8Zm-9.8-4.495c.766-.588,1.555-1.147,2.339-1.712a2.321,2.321,0,0,1,.283-.155c.131.048.239.085.346.126a10.253,10.253,0,0,1,4.674,3.614.745.745,0,0,1,.115.766c-.268.772-.484,1.562-.758,2.331a.824.824,0,0,1-.43.446c-.75.278-1.514.522-2.284.742a.756.756,0,0,1-.568-.1q-1.845-1.3-3.653-2.66a.812.812,0,0,1-.275-.551c-.03-.786-.024-1.574,0-2.36A.7.7,0,0,1-1819.153,1221.3Zm-9,1.937a9.8,9.8,0,0,1,4.734-3.679.829.829,0,0,1,.652.092q1.122.753,2.188,1.588a.963.963,0,0,1,.3.593,8.868,8.868,0,0,1,.013,1.13c.372,1.229-.3,1.89-1.255,2.486-.928.582-1.777,1.288-2.682,1.909a.881.881,0,0,1-.656.1c-.739-.208-1.47-.451-2.188-.723a.824.824,0,0,1-.433-.443q-.426-1.2-.767-2.432A.824.824,0,0,1-1828.151,1223.237Zm2.41,12.257c-.627-.109-1.261-.186-1.886-.311a.892.892,0,0,1-.523-.293,10.222,10.222,0,0,1-1.855-5.544,1.263,1.263,0,0,1,.268-.37c.6-.455,1.21-.895,1.836-1.312a.723.723,0,0,1,.535-.083c.781.234,1.556.494,2.323.772a.645.645,0,0,1,.346.352q.751,2.227,1.457,4.47a.606.606,0,0,1-.122.5c-.49.528-1.032,1.009-1.512,1.545A.839.839,0,0,1-1825.741,1235.494Zm10.374,2.43a.673.673,0,0,1-.32.428,10.014,10.014,0,0,1-8.331-.024.618.618,0,0,1-.289-.39,14.618,14.618,0,0,1-.257-1.5.9.9,0,0,1,.146-.43c.033-.07.111-.118.169-.176.629-.622,1.158-1.494,1.915-1.8a7.625,7.625,0,0,1,2.675-.069v-.029c.787,0,1.575-.014,2.362.011a.92.92,0,0,1,.548.227q.774.722,1.492,1.5a.722.722,0,0,1,.169.507C-1815.152,1236.765-1815.245,1237.348-1815.367,1237.924Zm4.133-3.421a.833.833,0,0,1-.5.306c-.722.143-1.454.235-2.178.369a.794.794,0,0,1-.828-.248c-.464-.508-.981-.967-1.445-1.476a.657.657,0,0,1-.128-.536q.653-2.108,1.366-4.2a.764.764,0,0,1,.412-.4c.735-.273,1.481-.522,2.234-.741a.77.77,0,0,1,.57.1q.9.594,1.759,1.258a1.662,1.662,0,0,1,.334.438A10.249,10.249,0,0,1-1811.234,1234.5Z" transform="translate(1830.896 -1218.265)"/></svg>