<svg xmlns="http://www.w3.org/2000/svg" width="44.527" height="26.872" viewBox="0 0 44.527 26.872"><defs><style>.a{fill:#f45683;}</style></defs><path class="a" d="M-4074.621-2540.914h0c0-.061.014-.122.014-.183q0-2.314,0-4.628c0-.089-.011-.178-.017-.267a.069.069,0,0,1-.019-.037.2.2,0,0,0,.019.037c0-.284.012-.568.012-.852,0-.568-.007-1.137-.011-1.705a.189.189,0,0,0-.02.04.063.063,0,0,1,.02-.04c.006-.083.016-.167.016-.25q0-.98,0-1.959a.638.638,0,0,0-.01-.194.054.054,0,0,0-.008-.021c0-.019,0-.037,0-.056h0c0-.061.012-.122.013-.183q0-2.247,0-4.493c0-.111-.008-.222-.012-.333a.033.033,0,0,0,0-.029c0-.25.012-.5.011-.752,0-.59-.007-1.181-.01-1.771h0a8.2,8.2,0,0,0,.015-.955c0-.508.022-1.017-.015-1.525a.108.108,0,0,1-.021-.041.211.211,0,0,0,.021.041c0-.072.011-.145.011-.217,0-.94,0-1.879,0-2.819a.766.766,0,0,0-.054-.324h0c-.075-.2-.241-.239-.431-.238h-5.83c-.061,0-.123,0-.184.007l-.07,0c-.045,0-.089,0-.134,0h-9.134c-.235,0-.47,0-.7.006h-.07c-.045,0-.089,0-.134,0h-9.738c-.056,0-.111,0-.167.007l-.07,0c-.044,0-.089,0-.134,0h-9.134c-.235,0-.47,0-.705.006h-.069q-3.664,0-7.326,0a.391.391,0,0,0-.4.331h0a.427.427,0,0,0-.026.214v3.071q0,4.918,0,9.836,0,4.078.006,8.157c0,1.572,0,3.144-.006,4.716a.4.4,0,0,0,.027.213c.009.034-.008.076.032.1a.38.38,0,0,0,.358.231c.24,0,.48,0,.721-.006h.038c.665,0,1.331.006,2,.006q1.452,0,2.9-.006h8.832l.07,0h1.207l.069,0h0c.609,0,1.219,0,1.829,0s1.241,0,1.862-.007l.07,0,1.275,0h.038c.666,0,1.331.006,2,.006q1.452,0,2.9-.006h8.833l.07,0h1.207l.07,0c.609,0,1.219,0,1.828,0s1.241,0,1.862-.007l.07,0,1.275,0h.038l2.546.007c.344,0,.5-.156.5-.5,0-.614,0-1.228,0-1.842A6.8,6.8,0,0,0-4074.621-2540.914Zm-8.978-6.677a4.365,4.365,0,0,1-2.419-2.338,3.354,3.354,0,0,1,0-2.614,3.974,3.974,0,0,1,1.206-1.6,5.312,5.312,0,0,1,1.465-.834c.075-.029.155-.079.238-.014h0c0,.037,0,.075,0,.109-.007.608,0,1.216,0,1.824a2.2,2.2,0,0,0,.026.434c.041.375.073.75.079,1.126v.241c0,.05,0,.1,0,.15-.007.195,0,.39,0,.586,0,.887-.007,1.774.005,2.661l0,.01c0,.011,0,.022,0,.033a.106.106,0,0,0-.035.018.143.143,0,0,0-.045.086c-.016.162-.051.3-.255.292,0,0,0-.006,0-.009A.587.587,0,0,0-4083.6-2547.591Zm8.192,7.432a.165.165,0,0,1,0-.017.2.2,0,0,0,.012.026Zm-.008-15.206h0a.221.221,0,0,0,.01.025A.071.071,0,0,1-4075.415-2555.365Zm-.037,6c-.125.053-.094.168-.095.262,0,1.322-.01,2.644,0,3.966,0,.14.02.278.029.417a.689.689,0,0,1-.107.522.332.332,0,0,1-.2.092h-6.114c-.222,0-.223,0-.223-.222q0-1.988,0-3.976a.458.458,0,0,0-.02-.215l-.01,0v0l.01,0a.034.034,0,0,0,0-.025,1.345,1.345,0,0,0,.016-.148q0-2.328,0-4.657a1.468,1.468,0,0,0-.019-.166.122.122,0,0,1-.014-.027l0,0v0a.18.18,0,0,0,.011.021v0h0a.46.46,0,0,0,.018-.2q0-1.074,0-2.148,0-1.167,0-2.333c0-.075-.023-.163.086-.19h2.4a.552.552,0,0,0,.276,0,.07.07,0,0,1,.031-.016.181.181,0,0,0-.031.016c.706.015,1.412.019,2.117,0l-.021-.011a.076.076,0,0,1,.021.011.568.568,0,0,0,.185.022h.022l.062-.007c.335.009.669,0,1,0a.651.651,0,0,1,.338.076c.125.086.118.219.118.347,0,.8,0,1.6,0,2.4,0,.1-.021.2.06.286a.12.12,0,0,0,.052.019c0,.013,0,.025,0,.039a.113.113,0,0,0-.008.052c0,.018,0,.035,0,.053,0,.042,0,.083,0,.125-.015.181-.063.359-.064.541,0,.042-.009.083-.009.125a.147.147,0,0,0,.019.062.339.339,0,0,1,.05.148c0,1.258,0,2.516,0,3.774a7.79,7.79,0,0,0,.016.97v0Zm.053,9.211h0v0l0,0Zm0-15.184h0v0Zm.76,4.273a.244.244,0,0,0,.016.03A.119.119,0,0,1-4074.64-2551.06Zm-21.768-5.241a2.473,2.473,0,0,1,.1-.605c.1-.112.233-.058.348-.039a5.813,5.813,0,0,1,1.866.633,5.693,5.693,0,0,1,1.983,1.772,5.709,5.709,0,0,1,.932,4.441,1.059,1.059,0,0,0-.064.444.227.227,0,0,0,.038.045l-.013.046a.732.732,0,0,0-.082.038,1.258,1.258,0,0,0-.116.259,5.64,5.64,0,0,1-1.549,2.311,5.925,5.925,0,0,1-2.017,1.2c-.062.022-.133.032-.166.1a.207.207,0,0,0,0,.05l-.017,0a.123.123,0,0,0-.017-.025c-.073-.057-.151-.024-.225-.006a4.585,4.585,0,0,1-.557.116.54.54,0,0,1-.344-.007.318.318,0,0,1-.052-.06.21.21,0,0,1-.06-.094q0-3.879,0-7.757,0-.938,0-1.876l0,0C-4096.388-2555.646-4096.418-2555.974-4096.408-2556.3Zm-.906.108a.241.241,0,0,0,.018.128q0,2.529,0,5.057,0,1.21,0,2.419a.108.108,0,0,0-.012.026.313.313,0,0,0,0,.117c.006.028.01.057.013.085v2.153c0,.027-.007.053-.012.08a1.957,1.957,0,0,1-.1.583c-.111.093-.237.042-.354.024a5.743,5.743,0,0,1-1.866-.634,5.652,5.652,0,0,1-2.379-2.435,5.7,5.7,0,0,1-.581-3.468,5.7,5.7,0,0,1,1.667-3.3,5.61,5.61,0,0,1,2.551-1.458c.069-.018.146-.026.185-.1a.179.179,0,0,0-.006-.029.428.428,0,0,0,.056.042,2.3,2.3,0,0,0,.379-.044c.113-.009.23-.057.34.019a.252.252,0,0,1,.054.136A2.237,2.237,0,0,1-4097.314-2556.193Zm-10.453,3.294a5.429,5.429,0,0,1,.292.778.588.588,0,0,1-.03.1.3.3,0,0,0,0,.148,2.909,2.909,0,0,1,.052.7,3.557,3.557,0,0,1-.872,2.271,5.066,5.066,0,0,1-.834.773c-.051.04-.122.069-.106.156.01.015.02.03.031.044l-.021-.021h0l-.008-.01c-.077-.064-.137,0-.2.033a6.73,6.73,0,0,1-.874.423.4.4,0,0,1-.273.055c-.02-.011-.033-.028-.053-.04a.16.16,0,0,1-.042-.067c0-.693,0-1.386,0-2.08q0-2.658,0-5.317a.372.372,0,0,1,.013-.185h0a.709.709,0,0,0,.267.134,4.8,4.8,0,0,1,2.33,1.733,1.834,1.834,0,0,0,.259.347C-4107.814-2552.913-4107.79-2552.907-4107.767-2552.9Zm-4.268-5.372c.071,0,.143,0,.215,0l.109.029.042.034.013.017a1.606,1.606,0,0,0,0,.217q0,4.55,0,9.1,0,2.149,0,4.3c0,.323-.059.379-.384.381h-5.641c-.472,0-.492-.021-.492-.492v-13.1c0-.056,0-.112,0-.168.008-.242.074-.309.312-.318.062,0,.123,0,.185,0Zm-4.812-.916a.155.155,0,0,1,0,.026.25.25,0,0,0,0-.026Zm10.112,20.466a1.942,1.942,0,0,0-.386.016l-.046.053a.115.115,0,0,0-.062-.052,2.022,2.022,0,0,0-.4-.018h-10.148a.7.7,0,0,1-.346-.042.243.243,0,0,1-.052-.044c0-.027,0-.053,0-.08q.005-1.2,0-2.391a.309.309,0,0,0-.059-.237.221.221,0,0,0-.041-.038.594.594,0,0,0,.016-.218c0-.49,0-.979,0-1.469l6.961,0a.564.564,0,0,0,.265-.028.379.379,0,0,0,.313-.382c0-.468.023-.937-.009-1.405a.034.034,0,0,0,0-.028h0a.036.036,0,0,0,0-.031.1.1,0,0,1-.02-.045.211.211,0,0,0,.02.045h0a10.236,10.236,0,0,0,.012-1.088.218.218,0,0,1,.19-.253,5.633,5.633,0,0,0,3.1-2.087,4.286,4.286,0,0,0,.519-4.487,5.319,5.319,0,0,0-3.038-2.784.357.357,0,0,0-.148-.02.929.929,0,0,0-.441-.175c-.143-.035-.183-.1-.181-.242.006-.809,0-1.619,0-2.428a.381.381,0,0,0-.016-.181c0-.02-.006-.04-.009-.06a.353.353,0,0,0-.328-.275.037.037,0,0,0-.025,0,.529.529,0,0,0-.216-.018h-3.91q-1.516,0-3.033-.007l0,0c0-.66,0-1.321,0-1.981a2.278,2.278,0,0,0-.028-.465.479.479,0,0,0,.028-.245c0-.487-.009-.974,0-1.46.077-.088.047-.224.127-.31l.042-.031a3.129,3.129,0,0,1,.644-.087c1.757.029,3.516-.07,5.271.065q1.813,0,3.625,0a1.236,1.236,0,0,0,.234-.014c.052,0,.073-.039.1-.074h.283c.026.022.051.047.078.07a1.162,1.162,0,0,0,.4,0,.118.118,0,0,0,.062-.052.3.3,0,0,1,.017-.026,2.082,2.082,0,0,1,.307.007c.026.031.046.067.092.073a.439.439,0,0,0,.085.01c.259.024.509-.066.768-.062,1.329.026,2.66-.058,3.988.066,1.433,0,2.866,0,4.3,0a2.158,2.158,0,0,1,.218,0c.164.017.226.08.241.245.005.056,0,.112,0,.168q0,2.451,0,4.9c0,.062,0,.123,0,.185a.238.238,0,0,1-.214.24,1.286,1.286,0,0,0-.326.075l-.062.074h-.026a.586.586,0,0,0-.1-.056,5.024,5.024,0,0,0-1.132.3,6.839,6.839,0,0,0-3.206,2.5,6.736,6.736,0,0,0-1.063,2.447c-.019.082-.067.173.009.255a.152.152,0,0,0,.032.015l0,.019a.339.339,0,0,1-.075.024.314.314,0,0,0-.044.159,6.458,6.458,0,0,0,.055,2.253,6.733,6.733,0,0,0,1.922,3.546,6.786,6.786,0,0,0,2.817,1.667,8.043,8.043,0,0,0,1.2.25c.166.024.208.078.22.243,0,.056,0,.112,0,.168v4.92c0,.395-.021.415-.42.415Zm31.188-.439c-.029.434-.034.439-.478.439h-10.516a1.958,1.958,0,0,0-.4.018.133.133,0,0,0-.064.055.123.123,0,0,0-.042-.047,1.106,1.106,0,0,0-.366-.026h-8.459c-.073,0-.146,0-.219,0-.182-.01-.238-.066-.249-.246,0-.056,0-.112,0-.168v-4.917c0-.375.007-.39.385-.441a6.56,6.56,0,0,0,1.926-.558,6.791,6.791,0,0,0,3.385-3.418,2.045,2.045,0,0,0,.232-.678c-.015-.022-.03-.044-.046-.065v0a.126.126,0,0,0,.066-.019.437.437,0,0,0,.105-.241,6.6,6.6,0,0,0,.159-2.71,6.7,6.7,0,0,0-3.046-4.751,6.669,6.669,0,0,0-2.859-1.046c-.3-.039-.31-.061-.31-.363v-4.213c0-.3,0-.6,0-.906,0-.1,0-.193.1-.249a3.231,3.231,0,0,1,.711-.094c1.167.015,2.337-.054,3.5.063q1.812,0,3.624,0a1.235,1.235,0,0,0,.234-.014c.052,0,.073-.039.1-.074h.283c.026.022.051.047.078.07a1.16,1.16,0,0,0,.4,0,.117.117,0,0,0,.062-.052l.018-.026a2.08,2.08,0,0,1,.307.007c.026.031.046.067.092.073a.439.439,0,0,0,.086.01c.258.024.508-.066.765-.061,1.332.026,2.666-.059,4,.066q3.028,0,6.057,0a.619.619,0,0,1,.328.046.284.284,0,0,1,.065.061.233.233,0,0,1,.076.134q0,1.927,0,3.854a.325.325,0,0,1-.066.159c-.018.13-.093.175-.222.2a6.11,6.11,0,0,1-.78.055.1.1,0,0,0-.025.015q-2.38,0-4.761,0c-.441,0-.883-.024-1.323.015a.369.369,0,0,0-.349.281h0c0,.03-.008.059-.013.089h0c0,.061-.013.122-.013.183,0,.777-.007,1.555,0,2.333,0,.185-.041.267-.233.323a5.828,5.828,0,0,0-2.505,1.438,4.514,4.514,0,0,0-1.466,3.347,4.992,4.992,0,0,0,3.2,4.452,3.824,3.824,0,0,0,.829.3c.146.037.178.108.177.245-.005.808,0,1.616,0,2.425a.378.378,0,0,0,.017.181h0c0,.02.006.04.009.06h0c.086.221.2.293.485.293h.257a.127.127,0,0,0,.08,0h3.19a1.282,1.282,0,0,1,.305.059,1.76,1.76,0,0,0,.614-.043.111.111,0,0,1,.023-.032h.007l-.006,0c.04.138.16.1.251.1.592.007,1.183,0,1.775,0,.425,0,.452.027.452.459,0,.787,0,1.574,0,2.361,0,.1-.027.217.082.291a.071.071,0,0,0,.029.007l0,.04h0c-.023.23-.084.456-.091.688C-4075.533-2539.26-4075.543-2539.21-4075.546-2539.16Zm-7.43-19.733c0-.01,0-.019-.007-.029A.234.234,0,0,1-4082.976-2558.893Z" transform="translate(4119.128 2564.67)"/></svg>