<svg xmlns="http://www.w3.org/2000/svg" width="56.237" height="35.496" viewBox="0 0 56.237 35.496"><defs><style>.a{fill:#f45683;}</style></defs><g transform="translate(-142 -1162)"><g transform="translate(142 1162)"><path class="a" d="M56.095,117.238a24.752,24.752,0,0,0-21.03-11.679q-.417,0-.834.014A17.894,17.894,0,0,0,30.282,99.6a17.745,17.745,0,1,0-4.629,28.459,24.767,24.767,0,0,0,30.441-9.824A.94.94,0,0,0,56.095,117.238ZM32.253,105.722a24.817,24.817,0,0,0-5.808,1.382,15.8,15.8,0,0,1,3.174-5.469A16.038,16.038,0,0,1,32.253,105.722Zm-13.564-9.4a15.735,15.735,0,0,1,9.6,3.978,17.668,17.668,0,0,0-4.069,7.753q-.69.336-1.358.714a24.8,24.8,0,0,0-3.555,2.454h-.618v-14.9Zm-1.88,0v14.9H11.732A17.6,17.6,0,0,0,7.21,100.3,15.741,15.741,0,0,1,16.809,96.324ZM5.879,101.634a15.729,15.729,0,0,1,3.97,9.59H1.909A15.729,15.729,0,0,1,5.879,101.634ZM1.909,113.1h7.94a15.729,15.729,0,0,1-3.97,9.59A15.729,15.729,0,0,1,1.909,113.1Zm14.9,14.9a15.74,15.74,0,0,1-9.6-3.977A17.6,17.6,0,0,0,11.732,113.1h5.077v.489a24.838,24.838,0,0,0-2.774,3.645.94.94,0,0,0,0,1,24.835,24.835,0,0,0,2.774,3.645V128Zm-.859-10.268a23.031,23.031,0,0,1,3.224-3.874v7.748A23.039,23.039,0,0,1,15.95,117.736ZM18.689,128V123.72a24.833,24.833,0,0,0,4.173,2.982c.177.1.357.2.537.293A15.949,15.949,0,0,1,18.689,128Zm30.387-4.763a22.832,22.832,0,0,1-28.022,0V112.231a22.832,22.832,0,0,1,28.022,0Zm1.88-1.631v-7.748a23.044,23.044,0,0,1,3.224,3.874A23.021,23.021,0,0,1,50.956,121.609Z" transform="translate(0 -94.416)"/><g transform="translate(22.282 20.132)"><path class="a" d="M227.487,279.95h-1.815v-1.308a.94.94,0,0,0-1.88,0v1.308h-2.664v-1.308a.94.94,0,0,0-1.88,0v1.308h-2.664v-1.308a.94.94,0,0,0-1.88,0v1.308H212.04v-1.308a.94.94,0,0,0-1.88,0v1.308H207.5v-1.308a.94.94,0,0,0-1.88,0v1.308H203.8a.94.94,0,0,0,0,1.88h1.815v1.308a.94.94,0,0,0,1.88,0V281.83h2.664v1.308a.94.94,0,0,0,1.88,0V281.83H214.7v1.308a.94.94,0,0,0,1.88,0V281.83h2.664v1.308a.94.94,0,0,0,1.88,0V281.83h2.664v1.308a.94.94,0,0,0,1.88,0V281.83h1.815a.94.94,0,1,0,0-1.88Z" transform="translate(-202.861 -277.702)"/></g></g></g></svg>