<svg xmlns="http://www.w3.org/2000/svg" width="30.85" height="53.409" viewBox="0 0 30.85 53.409"><defs><style>.a{fill:#fff;}</style></defs><g transform="translate(1637.165 -281.054)"><path class="a" d="M-1615,563.861c-.957-.154-1.925-.258-2.868-.471a11.839,11.839,0,0,1-8.388-6.708,25,25,0,0,1-2.213-10.014,3.732,3.732,0,0,0,.269.445,20.366,20.366,0,0,0,2.112,2.549,4.359,4.359,0,0,0,5.1.532,8.505,8.505,0,0,0,1.47-1.165,4.487,4.487,0,0,0,3.56-.171,4.873,4.873,0,0,0,2.415-2.775l2.021.714a11.974,11.974,0,0,0-4.03,8.933,5.175,5.175,0,0,0,.439,2.5l.173.01c.049-.376.108-.752.146-1.13a15.141,15.141,0,0,1,2.326-7.145,11.054,11.054,0,0,1,2.518-2.641c.155.923.256,1.865.482,2.775a3.81,3.81,0,0,0,1.475,2.4,4.322,4.322,0,0,0-.089-.614,11.714,11.714,0,0,1-.46-5.09c.086-.571-.106-.763-.7-.859a13.028,13.028,0,0,1-5.121-1.79,6.087,6.087,0,0,1-3.137-5.307c.011-1.322.544-1.828,1.828-1.586,1.664.314,3.32.714,4.945,1.193,2.509.738,4.99,1.571,7.481,2.371a2.655,2.655,0,0,1,1.9,2.134c.454,2.242,1.03,4.468,1.326,6.731a11.911,11.911,0,0,1-.931,5.6c-1.5,4.1-4.193,6.982-8.533,8.091-.886.227-1.8.329-2.707.489Z" transform="translate(-7.791 -229.398)"/><path class="a" d="M-1535.325,310.491a77.031,77.031,0,0,0-14.692-4.143c-.214-1.074-.482-2.306-.7-3.545q-1.617-9.013-3.211-18.03a4.685,4.685,0,0,1-.094-1.034,2.887,2.887,0,0,1,4.115-2.4,2.587,2.587,0,0,1,1.341,1.941c.67,3.137,1.317,6.279,2.021,9.408.658,2.925,1.36,5.841,2.082,8.751a11.177,11.177,0,0,0,.753,1.934,2.5,2.5,0,0,0,.6.773.512.512,0,0,0,.87-.152,8.365,8.365,0,0,0,.782-1.69c.76-2.792,1.509-5.589,2.185-8.4.738-3.068,1.407-6.152,2.078-9.235.461-2.116,2.025-2.686,3.917-1.932a2.29,2.29,0,0,1,1.385,2.636q-1.351,7.9-2.716,15.794a42.4,42.4,0,0,0-.708,9.066C-1535.32,310.349-1535.325,310.468-1535.325,310.491Z" transform="translate(-74.456)"/><path class="a" d="M-1578.056,492.375a3.259,3.259,0,0,1-3.557,2.511,2.482,2.482,0,0,1-1.976-1.449,40.7,40.7,0,0,1-2.08-4.8c-.684-2.047-1.155-4.166-1.709-6.256a3.466,3.466,0,0,1-.076-.67,3.47,3.47,0,0,1,4.741-3.574.922.922,0,0,1,.69.8c.242,1.347.526,2.686.778,4.032a.731.731,0,0,1-.06.525,4.155,4.155,0,0,0-.66,3.753,7.989,7.989,0,0,0,3.626,4.947Z" transform="translate(-44.514 -176.31)"/><path class="a" d="M-1633.322,514.246a39.715,39.715,0,0,0,2.855,9.941,35.178,35.178,0,0,0,1.772,3.217.546.546,0,0,1,.026.477,2.209,2.209,0,0,1-.741.625,3.331,3.331,0,0,1-3.582-.34,8.155,8.155,0,0,1-2.118-2.737,16.3,16.3,0,0,1-2.053-7.29c0-.121,0-.243,0-.365C-1637.21,515.736-1636.28,514.35-1633.322,514.246Z" transform="translate(0 -208.847)"/></g></svg>