<svg xmlns="http://www.w3.org/2000/svg" width="50.001" height="50" viewBox="0 0 50.001 50">
  <g id="Group_4406" data-name="Group 4406" transform="translate(1382.775 -1092.555)">
    <path id="Path_13364" data-name="Path 13364" d="M-1370.375,1136.822c1.636-2.4,1.609-4.813-.093-6.54-1.729-1.754-4.107-1.793-6.42-.243-1.863-1.756-3.715-3.458-5.509-5.218-.589-.579-.469-1.26.215-1.962,2.087-2.145,4.169-4.3,6.288-6.412q11.445-11.427,22.913-22.831a7.827,7.827,0,0,1,.756-.7,1.225,1.225,0,0,1,1.736.005c1.754,1.8,3.463,3.645,5.22,5.505-1.55,2.289-1.54,4.636.2,6.367a4.663,4.663,0,0,0,6.431.279c1.851,1.742,3.7,3.444,5.5,5.2a1.232,1.232,0,0,1-.113,1.85q-1.352,1.455-2.76,2.859-13.359,13.333-26.732,26.655c-1.229,1.223-1.656,1.232-2.9,0C-1367.25,1140.061-1368.8,1138.432-1370.375,1136.822Zm29.027-23.508a8.98,8.98,0,0,0-.77-1.059q-5.169-5.227-10.361-10.431c-.771-.776-1.317-.8-2.087-.031q-9.476,9.462-18.936,18.939c-.757.759-.754,1.25.013,2.022q5.211,5.241,10.443,10.46c.842.84,1.31.837,2.146.01q4.887-4.835,9.756-9.687,4.578-4.582,9.111-9.208A7.016,7.016,0,0,0-1341.348,1113.314Z" fill="#fff"/>
    <path id="Path_13365" data-name="Path 13365" d="M-1362.025,1130.832l-9.058-9.063,17.443-17.519,9.042,9.153Z" fill="#fff"/>
  </g>
</svg>
