<svg xmlns="http://www.w3.org/2000/svg" width="59.047" height="59.909" viewBox="0 0 59.047 59.909">
  <g id="Group_4405" data-name="Group 4405" transform="translate(1035.896 -1009.903)">
    <path id="Path_13360" data-name="Path 13360" d="M-976.849,1122.177l-2.73,4.544c-1.177-.688-2.312-1.344-3.44-2.012a11.218,11.218,0,0,0-6.539-1.334,36.987,36.987,0,0,0-15.329,4.421,31.744,31.744,0,0,1-12.008,3.606,21.271,21.271,0,0,1-8.776-.738,24.793,24.793,0,0,1-6.813-4.091c-1.118-.837-2.246-1.66-3.412-2.522l2.91-4.449c1.188.878,2.335,1.743,3.5,2.584a24.5,24.5,0,0,0,5.451,3.407,13.407,13.407,0,0,0,5.244.626,26.819,26.819,0,0,0,11.812-3.319,40.756,40.756,0,0,1,14.405-4.582c3.054-.341,6.148-.619,9.118.446a38.036,38.036,0,0,1,4.346,2.082C-978.35,1121.233-977.635,1121.71-976.849,1122.177Z" transform="translate(0 -90.57)" fill="#fff"/>
    <path id="Path_13361" data-name="Path 13361" d="M-979.664,1027.884c2.872-1.683,3.909-1.747,6.882-.484l8.846-8.834c.724-.723,1.43-1.465,2.177-2.162a2.283,2.283,0,0,1,2.351-.669,2.29,2.29,0,0,1,1.018,3.862c-1.747,1.8-3.541,3.555-5.316,5.328-2.042,2.04-4.095,4.07-6.116,6.13a1.616,1.616,0,0,0-.4.963c-.051.832.027,1.673-.024,2.5a.95.95,0,0,1-.451.708c-3.329,1.244-6.673,2.451-10.017,3.656a4.917,4.917,0,0,1-.8.134c0-1.8-.028-3.544.012-5.287a2.553,2.553,0,0,0-.854-2.148c-3.994-3.86-7.891-7.82-11.82-11.747a2.336,2.336,0,0,1-.207-3.493,2.3,2.3,0,0,1,3.484.178q5.357,5.344,10.7,10.7A6.937,6.937,0,0,1-979.664,1027.884Z" transform="translate(-34.203 -4.797)" fill="#fff"/>
    <path id="Path_13362" data-name="Path 13362" d="M-911.443,1191.126a39.968,39.968,0,0,0,11.252-3.583c0,1.3,0,2.49,0,3.678q-.009,8.495-.021,16.989a2.232,2.232,0,0,1-2.278,2.471,2.229,2.229,0,0,1-2.344-2.485c-.018-4.1-.008-8.2-.009-12.3v-.842h-2.008q0,3.908,0,7.833,0,6.755-.005,13.51a2.208,2.208,0,0,1-2.177,2.231,2.12,2.12,0,0,1-2.373-1.983,11.787,11.787,0,0,1-.074-1.449q-.006-11.611,0-23.222C-911.482,1191.709-911.458,1191.444-911.443,1191.126Z" transform="translate(-104.23 -148.822)" fill="#fff"/>
    <path id="Path_13363" data-name="Path 13363" d="M-900.433,1015.41a5.523,5.523,0,0,1-5.437,5.465,5.514,5.514,0,0,1-5.5-5.4,5.421,5.421,0,0,1,5.56-5.57A5.421,5.421,0,0,1-900.433,1015.41Z" transform="translate(-104.324)" fill="#fff"/>
  </g>
</svg>
