<svg xmlns="http://www.w3.org/2000/svg" width="64.515" height="42.971" viewBox="0 0 64.515 42.971">
  <g id="Group_4407" data-name="Group 4407" transform="translate(1800.759 -1204.226)">
    <path id="Path_13366" data-name="Path 13366" d="M-1791.223,1227.614a.829.829,0,0,0,.433.444c.719.271,1.449.515,2.188.723a.888.888,0,0,0,.657-.1c.9-.62,1.754-1.327,2.682-1.909.95-.6,1.626-1.256,1.255-2.486a8.868,8.868,0,0,0-.014-1.13.963.963,0,0,0-.3-.593q-1.063-.833-2.187-1.588a.834.834,0,0,0-.652-.092,9.8,9.8,0,0,0-4.735,3.68.833.833,0,0,0-.095.617Q-1791.649,1226.41-1791.223,1227.614Z" fill="#fff"/>
    <path id="Path_13367" data-name="Path 13367" d="M-1782.833,1226.03q1.806,1.356,3.653,2.66a.753.753,0,0,0,.569.1c.769-.219,1.533-.464,2.284-.741a.825.825,0,0,0,.429-.447c.275-.769.491-1.559.759-2.33a.749.749,0,0,0-.116-.767,10.254,10.254,0,0,0-4.674-3.614c-.106-.041-.214-.078-.346-.126a2.567,2.567,0,0,0-.283.155c-.784.565-1.572,1.125-2.339,1.712a.709.709,0,0,0-.213.49c-.022.787-.027,1.575,0,2.36A.811.811,0,0,0-1782.833,1226.03Z" fill="#fff"/>
    <path id="Path_13368" data-name="Path 13368" d="M-1787.106,1235a.6.6,0,0,0,.123-.5q-.7-2.244-1.458-4.471a.643.643,0,0,0-.346-.351c-.767-.279-1.541-.539-2.323-.772a.714.714,0,0,0-.534.082c-.626.417-1.237.858-1.837,1.313a1.255,1.255,0,0,0-.267.37,10.224,10.224,0,0,0,1.854,5.544.9.9,0,0,0,.523.293c.625.124,1.259.2,1.887.31a.839.839,0,0,0,.867-.275C-1788.137,1236.011-1787.595,1235.531-1787.106,1235Z" fill="#fff"/>
    <path id="Path_13369" data-name="Path 13369" d="M-1736.247,1239.442q0-15.911,0-31.82c0-2.217-1.16-3.392-3.344-3.392q-22-.006-43.995,0-7.02,0-14.041,0a2.8,2.8,0,0,0-3.018,2.4,5.307,5.307,0,0,0-.106,1.14q-.01,6.839-.005,13.679,0,11.23.005,22.461a3,3,0,0,0,3.3,3.289l28.945,0h5.185q12.024,0,24.049-.005a2.773,2.773,0,0,0,2.888-2.29,5.05,5.05,0,0,0,.13-1.137C-1736.237,1242.322-1736.247,1240.882-1736.247,1239.442Zm-36.242-8.215a3.084,3.084,0,0,0-.084.376,11,11,0,0,1-7.766,9.365c-.776.232-1.591.335-2.388.5h-1.674a3.225,3.225,0,0,0-.329-.08,10.829,10.829,0,0,1-9.3-7.449,19.971,19.971,0,0,1-.609-2.709v-1.673c.028-.124.065-.247.083-.373a10.848,10.848,0,0,1,7.816-9.375,19.539,19.539,0,0,1,2.339-.49h1.674a3.227,3.227,0,0,0,.329.08,10.833,10.833,0,0,1,9.3,7.449,19.95,19.95,0,0,1,.608,2.709Zm26.88,9.181c-3.572.013-7.144,0-10.717,0s-7.144.007-10.716,0a2.274,2.274,0,0,1-2.257-1.667,2.2,2.2,0,0,1,.862-2.473,2.784,2.784,0,0,1,1.4-.458q10.716-.042,21.433-.013a2.278,2.278,0,0,1,2.338,2.31A2.278,2.278,0,0,1-1745.609,1240.408Zm-21.308-12.324c3.265-.021,6.529-.011,9.794-.013h.72c3.528,0,7.057-.007,10.585,0a2.306,2.306,0,0,1,2.542,2.469,2.241,2.241,0,0,1-1.847,2.1,5.037,5.037,0,0,1-.86.065q-10.406.006-20.81,0a2.34,2.34,0,0,1-2.578-2.076A2.29,2.29,0,0,1-1766.917,1228.084Zm-2.462-5.405a2.321,2.321,0,0,1,2.559-2.31q5.256-.008,10.513,0,5.22,0,10.441,0a2.315,2.315,0,0,1,2.6,2.34,2.337,2.337,0,0,1-2.591,2.284l-20.953,0A2.338,2.338,0,0,1-1769.379,1222.679Zm23.746-7.055c-3.6.016-7.2.008-10.795.008q-17.271,0-34.544.007a2.456,2.456,0,0,1-2.529-1.4,2.276,2.276,0,0,1,2.125-3.222c3.574-.023,7.149-.008,10.723-.009h12.235q11.334,0,22.669,0a2.289,2.289,0,0,1,2.492,2.067A2.282,2.282,0,0,1-1745.633,1215.624Z" fill="#fff"/>
    <path id="Path_13370" data-name="Path 13370" d="M-1773.715,1230.259q-.854-.662-1.758-1.257a.777.777,0,0,0-.571-.1c-.753.22-1.5.469-2.234.742a.758.758,0,0,0-.411.4q-.714,2.088-1.366,4.2a.655.655,0,0,0,.128.536c.463.508.981.968,1.445,1.476a.794.794,0,0,0,.828.248c.724-.135,1.455-.227,2.177-.369a.832.832,0,0,0,.5-.306,10.26,10.26,0,0,0,1.6-5.135A1.664,1.664,0,0,0-1773.715,1230.259Z" fill="#fff"/>
    <path id="Path_13371" data-name="Path 13371" d="M-1780.493,1235.5a.915.915,0,0,0-.548-.228c-.786-.025-1.574-.01-2.361-.01v.029a7.62,7.62,0,0,0-2.674.069c-.757.3-1.286,1.176-1.915,1.8-.058.058-.137.106-.17.176a.908.908,0,0,0-.146.43,14.924,14.924,0,0,0,.257,1.5.622.622,0,0,0,.289.39,10.02,10.02,0,0,0,8.332.023.673.673,0,0,0,.32-.428,17.419,17.419,0,0,0,.278-1.743A.722.722,0,0,0-1779,1237C-1779.479,1236.484-1779.977,1235.983-1780.493,1235.5Z" fill="#fff"/>
  </g>
</svg>
