<svg xmlns="http://www.w3.org/2000/svg" width="81.885" height="43.604" viewBox="0 0 81.885 43.604">
  <g id="Group_4403" data-name="Group 4403" transform="translate(1809.418 269.609)">
    <path id="Path_13350" data-name="Path 13350" d="M-1720.3-101.763c0,.275,0,.487,0,.7q0,5.453,0,10.906a5.1,5.1,0,0,1-5.4,5.451q-6.313.023-12.625,0a5.426,5.426,0,0,1-5.521-4.052,7.116,7.116,0,0,1-.156-1.586c-.013-3.556-.007-7.113-.007-10.669v-.686c-2.057.1-4.043.238-6.031.287a69.279,69.279,0,0,1-13.178-.657,14.443,14.443,0,0,1-3.106-.932,2.467,2.467,0,0,1-1.566-3.213,2.883,2.883,0,0,1,3.1-2.12c1.766.2,3.53.416,5.294.632a58.213,58.213,0,0,0,13.539.114c1.2-.132,2.4-.241,3.594-.38a1.268,1.268,0,0,0,.589-.228,5.447,5.447,0,0,1,3.325-1.079q6.461-.024,12.922,0a5.594,5.594,0,0,1,3.329,1.072,1.887,1.887,0,0,0,.936.287c3.171.224,6.347.632,9.515.579,3.664-.061,7.321-.53,10.98-.83.551-.045,1.1-.149,1.647-.2a2.852,2.852,0,0,1,3,2.091,2.522,2.522,0,0,1-1.465,3.227,14.615,14.615,0,0,1-4.917,1.226,91.775,91.775,0,0,1-17.338.085C-1719.961-101.745-1720.077-101.75-1720.3-101.763Z" transform="translate(-36.489 -141.31)" fill="#fff"/>
    <path id="Path_13351" data-name="Path 13351" d="M-1802.483-35.262c-.341.821-.618,1.517-.918,2.2a3.118,3.118,0,0,1-3.391,1.923,3.06,3.06,0,0,1-2.6-2.692,3.3,3.3,0,0,1,.2-1.559c1.7-4.189,3.437-8.361,5.164-12.537a1.183,1.183,0,0,1,.073-.142c1.387.351,2.724.771,4.092,1.018a54.781,54.781,0,0,0,9.619.72c2.172,0,4.345-.076,6.517-.117.234,0,.469,0,.767,0,.011.23.028.44.028.649,0,2.865.007,5.729,0,8.594a4.647,4.647,0,0,1-4.953,4.924c-3.1.005-6.2-.061-9.3.022C-1799.551-32.2-1801.371-32.927-1802.483-35.262Z" transform="translate(0 -195.272)" fill="#fff"/>
    <path id="Path_13352" data-name="Path 13352" d="M-1322.576-36.029c-.121.208-.2.339-.274.472a4.471,4.471,0,0,1-4.042,2.465q-5.3.043-10.61,0a4.566,4.566,0,0,1-4.609-4.649c-.021-3-.006-6.007,0-9.01,0-.153.019-.306.03-.472,3.547,0,7.058.072,10.565-.02a29.538,29.538,0,0,0,10.389-1.734c.543,1.313,1.076,2.606,1.61,3.9,1.2,2.9,2.408,5.8,3.6,8.7a3.143,3.143,0,0,1-1.764,4.289,3.115,3.115,0,0,1-3.92-1.654C-1321.945-34.469-1322.234-35.217-1322.576-36.029Z" transform="translate(-411.885 -194.47)" fill="#fff"/>
    <path id="Path_13353" data-name="Path 13353" d="M-1533.227-261.457a8.164,8.164,0,0,1,8.205-8.153,8.187,8.187,0,0,1,8.186,8.242,8.229,8.229,0,0,1-8.245,8.142A8.206,8.206,0,0,1-1533.227-261.457Z" transform="translate(-243.441)" fill="#fff"/>
    <path id="Path_13354" data-name="Path 13354" d="M-1309.114-232.5a6.816,6.816,0,0,1,6.807,6.829,6.853,6.853,0,0,1-6.85,6.8,6.817,6.817,0,0,1-6.79-6.847A6.781,6.781,0,0,1-1309.114-232.5Z" transform="translate(-434.957 -32.713)" fill="#fff"/>
    <path id="Path_13355" data-name="Path 13355" d="M-1727.244-225.688a6.789,6.789,0,0,1,6.835-6.8,6.79,6.79,0,0,1,6.792,6.784,6.825,6.825,0,0,1-6.806,6.847A6.823,6.823,0,0,1-1727.244-225.688Z" transform="translate(-72.43 -32.719)" fill="#fff"/>
  </g>
</svg>
