<svg xmlns="http://www.w3.org/2000/svg" width="43.134" height="37.057" viewBox="0 0 43.134 37.057"><defs><style>.a{fill:#f45683;}</style></defs><g transform="translate(781.094 517.363)"><path class="a" d="M-756-493.818c-3.609,4.287-7.179,8.462-10.659,12.712-.793.968-1.344,1.022-2.353.347-2.7-1.805-5.427-3.572-8.235-5.2-1.522-.881-2.107-2.363-2.942-3.7-1.265-2.023-1.238-2.047.3-3.807q8.854-10.162,17.715-20.318a7.659,7.659,0,0,1,9.409-2.188c1.281.563,2.207.625,3.272-.429a3.6,3.6,0,0,1,4.148-.572,2.15,2.15,0,0,1,.939,3.649c-.124.149-.254.292-.474.545,1.073.445,2.029.933,3.039,1.241a5.176,5.176,0,0,1,3.712,4.306c1.185,5.789-3.926,14.176-9.592,15.784a5.758,5.758,0,0,1-4.529-.473C-753.448-492.569-754.679-493.151-756-493.818Zm-13.654,8.261c4.3-4.914,8.407-9.8,12.731-14.477,3.672-3.973,6.45-8.891,11.746-11.354-2.819-1.168-5.513-2.289-8.21-3.4a6.437,6.437,0,0,0-7.766,1.9q-4.65,5.362-9.309,10.715c-3,3.444-6.01,6.879-9.078,10.389Zm1.991,3.37c.305-.316.533-.527.732-.763q3.684-4.373,7.359-8.753c1.6-1.907,3.17-3.835,4.79-5.722a3.82,3.82,0,0,1,1.054-.619,7.47,7.47,0,0,1,.5,1.11c.126.459.111.956.227,1.419.6,2.41,2.491,3.551,4.838,2.739a11.267,11.267,0,0,0,3.329-1.85,14.6,14.6,0,0,0,5.187-8.45,11.3,11.3,0,0,0,.094-4.035c-.391-2.518-2.405-3.8-4.782-2.87a11.96,11.96,0,0,0-4.473,2.876c-6.556,7.27-12.963,14.674-19.394,22.057a1.446,1.446,0,0,0-.2,1.128A11.046,11.046,0,0,0-767.663-482.186Zm-10.408-7.056-.29.347c2.376,2.727,5.844,3.936,8.781,5.938a3.112,3.112,0,0,0-1.007-1.541C-773.056-486.119-775.572-487.667-778.072-489.241Zm28.644-25.407c.95.388,1.754.73,2.569,1.047,1.01.392,1.3-.516,1.67-1.075.085-.127-.413-.855-.778-1.039C-747.34-516.408-748.394-515.754-749.428-514.649Z"/><path class="a" d="M-705.454-483.579c-.351-.147-.575-.231-.791-.332-1.807-.852-3.6-1.73-5.424-2.552-.927-.418-1.158-.891-.411-1.7,1.114-1.205,2.146-2.49,3.317-3.635a1.8,1.8,0,0,1,1.532-.345c2,.677,3.957,1.5,5.933,2.253.87.333,1.014.811.377,1.519-1.259,1.4-2.5,2.814-3.766,4.206A4.977,4.977,0,0,1-705.454-483.579Zm1.642-3.852c-1.162-.454-2.235-.875-3.309-1.292-1.963-.764-1.964-.764-3.29.836a1.837,1.837,0,0,0-.169.361c.952.453,1.88.9,2.812,1.337C-705.423-485.088-705.422-485.089-703.812-487.431Zm-3.952-3.433-.136.363,5.153,2.007.144-.384Z" transform="translate(-52.062 -19.108)"/></g></svg>