<svg xmlns="http://www.w3.org/2000/svg" width="30.224" height="50" viewBox="0 0 30.224 50"><defs><style>.a{fill:#fff;}</style></defs><g transform="translate(2460.154 -1223.511)"><path class="a" d="M-2445.09,1223.511c.682.478,1.346.97,2.041,1.414a1.158,1.158,0,0,0,.733.151c.727-.113,1.447-.276,2.165-.442a.668.668,0,0,1,.88.345,12.057,12.057,0,0,0,1.04,1.573,1.254,1.254,0,0,0,.661.436c.77.176,1.552.3,2.334.419a.485.485,0,0,1,.487.455c.121.653.295,1.3.421,1.949a.966.966,0,0,0,.53.741c.678.369,1.322.8,2,1.178a.477.477,0,0,1,.277.6,20.341,20.341,0,0,0-.3,2.026,1.246,1.246,0,0,0,.2.775c.533.744,1.115,1.452,1.691,2.19-.384.667-.736,1.336-1.144,1.968a1.2,1.2,0,0,0-.121,1.16c.24.676.406,1.378.636,2.058a.476.476,0,0,1-.186.636c-.561.421-1.113.857-1.633,1.326a1.155,1.155,0,0,0-.345.661c-.1.8-.153,1.611-.2,2.418a.457.457,0,0,1-.392.476c-.672.2-1.344.4-2,.647a1.075,1.075,0,0,0-.536.453c-.379.713-.724,1.445-1.052,2.184a.477.477,0,0,1-.575.328,16.367,16.367,0,0,0-1.991-.1,1.472,1.472,0,0,0-.847.309c-.593.494-1.142,1.042-1.692,1.586a.489.489,0,0,1-.659.1c-.609-.307-1.228-.6-1.863-.846a1.256,1.256,0,0,0-.794-.024c-.729.253-1.441.556-2.149.865a.537.537,0,0,1-.738-.146,19.149,19.149,0,0,0-1.473-1.5,1.082,1.082,0,0,0-.653-.257c-.772-.015-1.546.01-2.318.046-.333.016-.561-.06-.632-.413a.276.276,0,0,0-.023-.049,6.621,6.621,0,0,0-1.038-2.154,5.758,5.758,0,0,0-2.226-.89c-.524-.163-.771-.407-.7-.985a3.366,3.366,0,0,0-1.561-3.517c-.982-.662-.982-.8-.485-1.9a2.767,2.767,0,0,0-.2-3.043,2.386,2.386,0,0,1-.634-1.385c.052-.435.555-.86.939-1.2a2.2,2.2,0,0,0,.7-2.359,6.964,6.964,0,0,1-.147-1.5.66.66,0,0,1,.267-.488,12.521,12.521,0,0,1,1.61-.872,1.31,1.31,0,0,0,.809-1.037c.146-.665.365-1.315.514-1.981a.519.519,0,0,1,.54-.471,19.907,19.907,0,0,0,1.979-.244,1.266,1.266,0,0,0,.693-.405c.479-.583.924-1.2,1.345-1.822a.616.616,0,0,1,.8-.3c.6.182,1.219.307,1.825.476a.983.983,0,0,0,.9-.137C-2446.64,1224.475-2445.871,1224.009-2445.09,1223.511Zm-.016,4.392a10.687,10.687,0,0,0-10.639,10.714,10.683,10.683,0,0,0,10.807,10.6,10.658,10.658,0,0,0,10.489-10.791A10.666,10.666,0,0,0-2445.106,1227.9Z"/><path class="a" d="M-2442.54,1254.328l-4.279,19.173c-.181-.169-.322-.291-.453-.423-1.287-1.284-2.581-2.561-3.849-3.862a.683.683,0,0,0-.88-.2c-1.761.72-3.536,1.406-5.419,2.149l4.2-18.821c1.02,0,2.042-.011,3.062.011a.771.771,0,0,1,.443.251c.5.491,1,.987,1.468,1.508a.478.478,0,0,0,.649.133c.724-.317,1.453-.628,2.2-.886a1.241,1.241,0,0,1,.8.029C-2443.919,1253.663-2443.26,1253.995-2442.54,1254.328Z"/><path class="a" d="M-2443.316,1273.511c-.338-1.5-.6-2.936-.992-4.331a8.329,8.329,0,0,1-.006-4.384c.817-3.349,1.531-6.723,2.243-10.1a3.074,3.074,0,0,1,.8-1.233,2.425,2.425,0,0,1,2.567-1.119,6.223,6.223,0,0,0,1.4.02c.312-.011.422.1.49.412.648,2.965,1.32,5.924,1.982,8.885q1.021,4.575,2.038,9.15c.018.085.03.171.06.341-1-.393-1.943-.761-2.883-1.131-.851-.336-1.707-.663-2.551-1.019a.614.614,0,0,0-.793.166c-1.345,1.377-2.714,2.73-4.076,4.09C-2443.1,1273.324-2443.171,1273.38-2443.316,1273.511Z"/><path class="a" d="M-2435.493,1238.576a9.565,9.565,0,0,1-9.734,9.574,9.56,9.56,0,0,1-9.456-9.634,9.609,9.609,0,0,1,9.6-9.57A9.613,9.613,0,0,1-2435.493,1238.576Zm-17.4-2.536c1.121,1.28,2.169,2.465,3.2,3.666a.969.969,0,0,1,.247.6c-.043.825-.142,1.648-.214,2.471s-.136,1.621-.211,2.517c1.552-.664,3-1.3,4.456-1.89a1.17,1.17,0,0,1,.8,0c1.332.539,2.647,1.12,3.969,1.684.137.059.283.1.5.17-.106-1.207-.121-2.349-.326-3.455a3.019,3.019,0,0,1,.947-3.064,34.1,34.1,0,0,0,2.39-2.7c-1.314-.3-2.528-.634-3.763-.833a2.5,2.5,0,0,1-2.122-1.521,18.391,18.391,0,0,0-1.119-1.9l-.872-1.455c-.762,1.275-1.518,2.457-2.183,3.688a1.947,1.947,0,0,1-1.512,1.091C-2450.079,1235.355-2451.433,1235.708-2452.889,1236.04Z"/></g></svg>