<?xml version="1.0" encoding="UTF-8" standalone="no"?>
<svg xmlns:dc="http://purl.org/dc/elements/1.1/" xmlns:cc="http://creativecommons.org/ns#"
    xmlns:rdf="http://www.w3.org/1999/02/22-rdf-syntax-ns#" xmlns:svg="http://www.w3.org/2000/svg"
    xmlns="http://www.w3.org/2000/svg" xmlns:sodipodi="http://sodipodi.sourceforge.net/DTD/sodipodi-0.dtd"
    xmlns:inkscape="http://www.inkscape.org/namespaces/inkscape" width="1919.286" height="742.492"
    viewBox="0 0 1919.286 742.492" version="1.1" id="svg4519" sodipodi:docname="Group 4477.svg"
    inkscape:version="0.92.5 (2060ec1f9f, 2020-04-08)">
    <metadata id="metadata4523">
        <rdf:RDF>
            <cc:Work rdf:about="">
                <dc:format>image/svg+xml</dc:format>
                <dc:type rdf:resource="http://purl.org/dc/dcmitype/StillImage" />
                <dc:title></dc:title>
            </cc:Work>
        </rdf:RDF>
    </metadata>
    <sodipodi:namedview pagecolor="#ffffff" bordercolor="#666666" borderopacity="1" objecttolerance="10"
        gridtolerance="10" guidetolerance="10" inkscape:pageopacity="0" inkscape:pageshadow="2"
        inkscape:window-width="1920" inkscape:window-height="1016" id="namedview4521" showgrid="false"
        inkscape:zoom="0.73152203" inkscape:cx="959.64301" inkscape:cy="391.746" inkscape:window-x="0"
        inkscape:window-y="27" inkscape:window-maximized="1" inkscape:current-layer="svg4519">
        <inkscape:grid type="xygrid" id="grid4777" />
    </sodipodi:namedview>
    <defs id="defs4493">
        <style id="style4491">
            .a {
                fill: #f5f6f6;
            }

            .b {
                opacity: 0.66;
            }

            .c {
                fill: #fff;
            }
        </style>
    </defs>
    <g transform="matrix(1.0014246,0,0,1.0911061,-2.7368746,-841.1527)" id="g4517">
        <path class="a" d="m 2,732 v 720.222 H 1921.286 V 732 L 992.866,733.022 2,732" id="path4495"
            inkscape:connector-curvature="0" style="fill:#f5f6f6" sodipodi:nodetypes="cccccc" />
        <g class="b" transform="translate(1021.416,861.389)" id="g4503" style="opacity:0.66000001">
            <path class="c"
                d="m 533.661,367.843 a 18.336,18.336 0 0 0 -1.6,-9.913 c -3.837,-5.435 -5.756,-0.96 -5.756,-0.96 0,5.436 -2.557,17.268 -2.557,17.268 l -4.478,5.115 a 48.852,48.852 0 0 0 -23.022,7.036 30.078,30.078 0 0 1 -5.435,3.2 c -4.157,0 -8.954,3.837 -8.954,3.837 -4.476,0.639 -14.069,5.117 -14.069,5.117 3.2,-4.155 0.958,-10.871 0.958,-10.871 1.28,-6.076 14.07,-13.75 14.07,-13.75 5.117,-3.2 15.349,-18.226 15.349,-18.226 l 4.478,-9.913 c -0.639,-2.877 0.317,-10.23 0.317,-10.23 0.32,-4.8 -2.558,1.918 -2.558,1.918 a 5.72,5.72 0 0 1 1.28,-5.437 c 2.238,-1.917 -1.28,-1.917 -1.28,-1.917 1.28,-1.28 -0.639,-1.6 -0.639,-1.6 -7.672,5.756 -2.877,15.028 -2.877,15.028 -0.958,4.476 -6.075,8.954 -6.075,8.954 -5.436,2.877 -12.151,11.831 -12.151,11.831 -3.516,3.518 -11.19,5.756 -11.19,5.756 5.434,-11.512 -0.96,-18.865 -0.96,-18.865 -9.593,-11.831 -19.825,-0.32 -19.825,-0.32 -5.436,7.675 -0.319,15.988 -0.319,15.988 l -7.675,-0.637 a 42.273,42.273 0 0 1 -12.79,-5.119 c -2.877,-6.393 -10.551,-8.952 -10.551,-8.952 a 82.179,82.179 0 0 1 -6.716,-4.8 11.484,11.484 0 0 1 -3.516,-4.157 c -1.28,-8.314 -5.117,-7.673 -5.117,-7.673 -4.8,1.278 -5.115,7.034 -5.115,7.034 -0.641,1.6 6.075,5.756 6.075,5.756 l 12.149,14.389 a 26.689,26.689 0 0 0 7.036,5.756 l 7.034,4.795 c 5.756,2.877 7.673,10.234 7.673,10.234 l 2.245,25.575 0.958,9.274 c -0.317,5.754 2.24,5.437 2.24,5.437 -2.877,15.027 7.673,22.381 7.673,22.381 4.156,2.557 9.593,11.51 9.593,11.51 3.2,7.675 11.191,19.185 11.191,19.185 3.2,3.837 0.319,7.036 0.319,7.036 -7.355,9.911 -4.795,26.218 -4.795,26.218 1.6,6.4 -2.877,12.47 -2.877,12.47 -4.159,1.6 -3.2,7.036 -3.2,7.036 1.6,0 8.953,7.034 8.953,7.034 3.518,3.2 13.111,7.355 13.111,7.355 7.673,0.638 1.278,-5.437 1.278,-5.437 -10.234,-11.831 -7.675,-21.1 -7.675,-21.1 3.838,-7.355 5.119,-21.742 5.119,-21.742 a 18.738,18.738 0 0 1 3.2,-9.593 C 487.3,481.995 484.74,474 484.74,474 a 44.027,44.027 0 0 1 -1.919,-6.076 c -0.639,-9.271 -15.028,-38.049 -15.028,-38.049 3.837,-3.2 26.539,-28.139 26.539,-28.139 15.03,-2.557 17.587,-7.353 17.587,-7.353 4.8,-5.756 18.228,-10.552 18.228,-10.552 8.633,-1.28 5.434,-9.274 5.434,-9.274 -2.881,-2.238 -1.92,-6.714 -1.92,-6.714 z"
                id="path4497" inkscape:connector-curvature="0" style="fill:#ffffff" />
            <path class="c"
                d="m 685.739,477 c -2.286,-10.971 -2.739,2.28 -2.739,2.28 0,9.139 -4.57,11.424 -4.57,11.424 -2.742,3.655 -2.286,-4.113 -2.286,-4.113 -1.369,-4.111 -3.2,-0.458 -3.2,-0.458 l 0.458,5.028 a 11.953,11.953 0 0 0 -0.458,6.854 c 2.742,2.74 0,8.224 0,8.224 L 667,514.465 c 4.572,-10.052 -0.912,-23.3 -0.912,-23.3 l 3.655,-3.657 c 4.568,-2.283 -1.828,-9.137 -1.828,-9.137 0,-3.2 4.568,-9.14 4.568,-9.14 10.967,-7.31 10.967,-16.451 10.967,-16.451 4.572,-18.735 -21.476,-14.165 -21.476,-14.165 -8.681,1.371 -10.967,11.88 -10.967,11.88 -6.4,-0.458 -12.794,-15.08 -12.794,-15.08 a 42.077,42.077 0 0 0 -6.856,-18.735 c -3.653,-4.568 -8.222,-14.622 -8.222,-14.622 -2.742,-3.655 -1.828,-13.25 -1.828,-13.25 0.458,-7.769 -3.2,-10.509 -3.2,-10.509 -5.484,-5.943 -3.2,0.456 -3.2,0.456 3.2,4.113 0.456,12.794 0.456,12.794 l -2.284,-2.284 c -6.4,-5.482 -2.284,2.284 -2.284,2.284 0.458,2.284 1.828,6.854 1.828,6.854 3.2,2.742 5.941,10.967 5.941,10.967 a 69,69 0 0 0 10.052,29.7 l -4.114,8.224 c 5.028,4.572 0.917,14.166 0.917,14.166 C 621.31,460.089 614,463.744 614,463.744 a 21.092,21.092 0 0 1 -9.14,1.369 18.587,18.587 0 0 0 -8.683,-2.74 c -0.456,-6.4 -5.024,-3.2 -5.024,-3.2 0,-5.028 -7.312,-3.2 -7.312,-3.2 C 577.9,453.235 557.8,437.7 557.8,437.7 l -10.054,-9.139 c -2.284,-3.655 -5.483,-10.508 -5.483,-10.508 a 31.9,31.9 0 0 0 -12.794,-13.248 c -7.768,-7.312 -18.277,-11.416 -18.277,-11.416 -5.026,-2.742 -9.139,-8.666 -9.139,-8.666 2.74,-7.771 -17.364,-15.51 -17.364,-15.51 -12.8,0.915 -3.2,13.309 -3.2,13.309 a 19.792,19.792 0 0 1 7.312,9.711 c 2.286,3.883 11.882,6.625 11.882,6.625 5.483,1.827 11.88,12.794 11.88,12.794 4.111,7.769 11.879,14.622 11.879,14.622 4.114,1.828 11.425,10.509 11.425,10.509 1.828,8.225 12.34,16.451 12.34,16.451 l -2.286,16.451 c -0.457,4.568 3.2,4.568 3.2,4.568 l 15.083,6.4 -2.735,4.111 -16.889,-3.2 c -1.373,-6.4 -6.823,-4.111 -6.823,-4.111 -4.113,1.373 -10.905,1.827 -10.905,1.827 -9.139,-3.2 -16.041,5.026 -16.041,5.026 -12.338,14.624 22.008,20.563 22.008,20.563 v 3.655 l 18.2,3.2 c 6.854,0.912 20.628,-5.941 20.628,-5.941 l 57.961,1.369 c 17.366,2.286 21.9,31.073 21.9,31.073 4.568,11.424 12.776,4.113 12.776,4.113 10.51,-6.4 16.44,-31.528 16.44,-31.528 a 137.85,137.85 0 0 1 4.565,-15.08 c 4.111,-7.767 0.45,-18.73 0.45,-18.73 z"
                transform="translate(59.359,29.044)" id="path4499" inkscape:connector-curvature="0"
                style="fill:#ffffff" />
            <path class="c"
                d="m 505.846,378.973 c 13.253,5.943 21.021,-7.308 21.021,-7.308 5.484,-10.969 -5.028,-19.65 -5.028,-19.65 -13.707,-6.854 -21.932,3.655 -21.932,3.655 -10.507,14.623 5.939,23.303 5.939,23.303 z"
                transform="translate(72.466,15.114)" id="path4501" inkscape:connector-curvature="0"
                style="fill:#ffffff" />
        </g>
        <g class="b" transform="translate(74.184,653.766)" id="g4509" style="opacity:0.66000001">
            <path class="c"
                d="m 235.993,341.284 -1.584,-3.694 c 16.891,-36.42 5.278,-83.4 5.278,-83.4 l 2.641,-2.1 -6.07,-22.95 h -3.433 l -19,-39.466 a 16.074,16.074 0 0 0 -2.637,-5.422 c -4.225,-2.637 -9.5,-22.306 -9.5,-22.306 -2.637,-7.388 -12.128,-15.912 -12.128,-15.912 -4.751,-3.694 -6.846,-0.577 -6.846,-0.577 -17.418,-2.637 -26.359,3.647 -26.359,3.647 -21.643,14.777 -8.91,37.929 -8.91,37.929 -5.142,6.2 9.9,14.375 9.9,14.375 l -1.057,5.809 -16.888,27.449 c -11.087,20.586 6.331,53.838 6.331,53.838 4.751,10.56 1.057,34.836 1.057,34.836 -2.641,4.225 1.053,55.425 1.053,55.425 -6.862,10.029 -1.58,17.414 -1.58,17.414 L 139.4,404.1 c -14.781,5.278 -6.862,12.14 -6.862,12.14 -5.282,2.114 -2.114,11.613 -2.114,11.613 -11.083,3.694 -3.694,13.2 -3.694,13.2 1.057,8.442 -4.751,42.751 -2.11,44.335 l -0.527,4.751 2.11,1.057 -1.057,12.667 c 0,8.446 -11.609,21.112 -11.609,21.112 -10.556,6.862 -14.25,24.28 -14.25,24.28 -3.694,7.919 -13.728,24.28 -13.728,24.28 C 82.395,571.42 75,592.536 75,592.536 c -4.748,0.527 -6.335,11.083 -6.335,11.083 -11.083,7.389 -13.193,24.28 -13.193,24.28 a 17.587,17.587 0 0 1 -4.221,10.556 c -13.724,18.475 4.221,30.084 4.221,30.084 12.667,12.671 19,-8.446 19,-8.446 -0.531,-4.748 1.584,-13.193 1.584,-13.193 3.694,-9.5 11.083,-20.059 11.083,-20.059 l 13.724,4.221 c 6.335,1.057 0.527,-2.106 0.527,-2.106 L 88.2,623.674 c 1.584,-3.164 1.057,-10.026 1.057,-10.026 l 0.527,-2.641 c 4.221,-5.278 4.751,-14.25 4.751,-14.25 4.221,-10.557 22.165,-30.615 22.165,-30.615 12.67,-7.919 24.28,-33.252 24.28,-33.252 10.029,-5.282 16.891,-24.28 16.891,-24.28 3.7,0 8.976,-3.694 8.976,-3.694 l 5.278,6.862 c -2.114,7.388 3.168,5.278 3.168,5.278 l 3.164,5.8 c 7.392,28.5 0,49.617 0,49.617 -10.556,11.083 -3.694,31.668 -3.694,31.668 l -4.221,17.418 c -3.168,-2.11 -1.057,5.809 -1.057,5.809 -4.751,22.166 -14.25,26.917 -14.25,26.917 -6.335,2.641 -11.613,10.029 -11.613,10.029 -3.694,8.972 13.724,20.586 13.724,20.586 12.14,3.694 7.919,12.667 7.919,12.667 4.221,10.029 11.083,13.2 11.083,13.2 17.418,8.446 11.613,-7.919 11.613,-7.919 -10.56,-13.724 -5.809,-36.42 -5.809,-36.42 l 7.919,3.694 a 7.246,7.246 0 0 1 2.719,0.663 7.841,7.841 0 0 1 -0.078,-1.19 l -7.919,-5.278 4.751,-4.225 c 4.751,-6.331 -0.531,-4.748 -0.531,-4.748 -2.11,4.748 -5.8,-0.531 -5.8,-0.531 3.694,-6.331 6.862,-24.28 6.862,-24.28 3.168,-6.331 0,-5.8 0,-5.8 a 115.241,115.241 0 0 0 15.308,-56.479 c 8.972,-15.834 8.446,-46.976 8.446,-46.976 l 3.168,-1.057 c 4.221,-10.556 -2.641,-33.252 -2.641,-33.252 4.751,-5.278 1.584,-16.365 1.584,-16.365 5.809,-2.11 1.057,-8.446 1.057,-8.446 l -3.168,-4.221 c -1.057,-4.751 2.637,-16.361 2.637,-16.361 a 10.183,10.183 0 0 0 0,-8.446 l -4.748,-12.14 -0.527,-10.56 0.527,-3.164 c 4.742,-8.977 24.275,-65.982 24.275,-65.982 z m -24.81,-49.613 -1.057,-9.5 c 0,0 6.866,-4.221 1.057,-15.307 0,0 0.527,-19.528 -15.307,-24.806 0,0 -13.724,-1.584 -19,11.613 0,0 -6.335,14.777 -4.748,19 l -3.7,-2.641 c 0,0 -1.584,-14.781 -7.915,-17.418 0,0 7.915,-19.528 3.694,-32.725 l 3.694,-8.972 4.751,-1.057 c 0,0 19.528,-8.442 25.333,-18.471 0,0 3.694,-0.527 7.919,16.887 l 6.331,25.337 -2.11,1.057 c 0,0 4.751,10.026 3.168,18.475 0,0 2.11,2.107 3.7,7.388 l 0.523,20.586 z"
                id="path4505" inkscape:connector-curvature="0" style="fill:#ffffff" />
            <path class="c" d="m 83.691,279.212 c 0.39,2.618 2.017,1.053 0,0 z" transform="translate(109.098,391.574)"
                id="path4507" inkscape:connector-curvature="0" style="fill:#ffffff" />
        </g>
        <g class="b" transform="translate(943.241,743.176)" id="g4515" style="opacity:0.66000001">
            <path class="c" d="m 492.134,181.609 a 47.142,47.142 0 0 1 -5.946,0.237 9.555,9.555 0 0 0 5.946,-0.237 z"
                transform="translate(133.894,93.944)" id="path4511" inkscape:connector-curvature="0"
                style="fill:#ffffff" />
            <path class="c"
                d="m 691.737,291.1 c 1.762,-2.824 2.471,-15.9 2.471,-15.9 0,0 -2.471,2.826 -2.119,-0.707 a 10.512,10.512 0 0 0 0.021,-1.417 c -0.2,-4.164 -2.137,-11.655 -2.137,-11.655 -1.769,-6.712 0,-39.566 0,-39.566 2.117,-9.539 -3.534,-28.616 -3.534,-28.616 a 108.8,108.8 0 0 0 -2.477,-13.07 l 86.555,-8.127 -0.352,-7.065 -90.791,7.772 c -1.065,-5.3 -12.72,-14.132 -12.72,-14.132 4.238,-2.119 15.189,-16.956 15.189,-16.956 4.948,2.824 14.132,-4.948 14.132,-4.948 3.889,-6.005 -3.181,-1.06 -3.181,-1.06 l -4.945,0.707 3.888,-5.653 c 1.409,-4.241 -3.179,0 -3.179,0 a 18.81,18.81 0 0 1 -3.886,3.181 l 0.7,-3.534 c 0,-2.474 -5.3,1.412 -5.3,1.412 l -2.122,-1.06 0.707,-6.36 c 1.414,-5.65 -3.531,0 -3.531,0 -1.414,1.767 -1.414,6.712 -1.414,6.712 l -4.945,0.707 c -3.179,-0.352 -3.531,-3.886 -3.531,-3.886 -6.363,-2.119 -1.414,6.008 -1.414,6.008 l 4.946,3.883 -3.883,4.241 c -5.3,2.119 -10.953,7.772 -10.953,7.772 -4.241,-5.3 -44.517,-20.134 -44.517,-20.134 -8.122,0.352 -19.782,-1.062 -19.782,-1.062 -18.722,-3.534 -39.919,11.658 -39.919,11.658 -10.246,-1.767 -17.313,14.132 -17.313,14.132 a 8.071,8.071 0 0 0 -4.591,6.005 c -0.352,1.767 -3.534,8.479 -3.534,8.479 -1.767,2.474 -1.414,4.241 -1.414,4.241 -2.117,3.179 -6.352,12.715 -6.352,12.715 L 401,193.594 v 7.772 l 113.4,-8.127 -3.006,13.072 c 0,8.831 -7.152,19.077 -7.152,19.077 -5.3,-1.767 -3.932,5.3 -3.932,5.3 0.707,2.122 -0.023,7.067 -0.023,7.067 -1.412,4.945 -8.49,9.536 -8.49,9.536 0,3.181 3.878,2.474 3.878,2.474 -3.531,6.712 6.71,10.953 6.71,10.953 -10.6,19.075 -27.909,21.2 -27.909,21.2 -7.067,2.471 -2.119,7.419 -2.119,7.419 l -1.767,2.119 c -2.477,2.826 4.593,5.3 4.593,5.3 -1.062,2.474 5.65,1.767 5.65,1.767 -0.7,3.179 4.238,1.06 4.238,1.06 4.593,-2.119 8.834,-12.01 8.834,-12.01 2.471,-4.945 22.608,-22.611 22.608,-22.611 4.241,-4.945 17.31,-19.43 17.31,-19.43 3.534,-3.534 21.2,-30.735 21.2,-30.735 4.593,-2.474 16.953,-13.072 16.953,-13.072 l 5.3,0.707 c -1.412,0.707 -0.352,4.591 -0.352,4.591 -0.7,4.241 2.122,6.008 2.122,6.008 -0.71,14.484 13.774,18.722 13.774,18.722 0,0 6.008,-7.417 -0.352,1.769 -6.36,9.186 -2.468,32.14 -2.468,32.14 l -6.365,8.831 c -5.3,11.305 0,21.2 0.352,13.424 a 10.077,10.077 0 0 1 0.154,-1.332 c 1.2,-6.481 8.68,-6.795 8.68,-6.795 a 34.365,34.365 0 0 1 -3.883,16.6 c 5.4,-8.224 6.118,-12.892 6.113,-14.829 a 21.764,21.764 0 0 0 8.019,14.124 c -7.234,-13.525 0.37,-22.289 2.127,-24.048 a 28.39,28.39 0 0 1 4.938,1.438 c 2.045,2.047 6.339,2.623 9.953,2.711 -7.7,-2.363 -9.6,-15.428 -9.6,-15.428 -2.119,-6.357 -2.471,-18.37 -2.471,-18.37 -1.414,-9.184 -1.767,-9.539 -1.767,-9.539 l 3.886,0.707 a 58.507,58.507 0 0 0 7.769,2.826 c -3.883,-5.3 0.352,-10.246 0.352,-10.246 2.829,-5.653 -0.352,-11.305 -0.352,-11.305 2.829,1.767 4.241,8.127 4.241,8.127 -0.707,-9.891 -6.005,-12.365 -6.005,-12.365 a 45.084,45.084 0 0 1 -2.119,-9.184 c -0.707,-11.305 -5.3,-6.363 -5.3,-6.363 l -4.591,-6.71 2.119,-2.826 38.509,-1.06 18.015,8.124 a 9.551,9.551 0 0 1 2.826,7.065 c -4.948,23.67 5.3,34.976 5.3,34.976 3.534,9.184 4.241,25.435 4.241,25.435 -2.122,1.062 -7.422,4.241 -7.422,4.241 -7.417,8.479 5.653,18.37 5.653,18.37 2.477,3.179 1.062,11.305 1.062,11.305 -5.3,10.246 3.883,20.137 3.883,20.137 7.419,8.479 12.368,-0.707 12.368,-0.707 2.469,-3.886 1.06,-15.544 1.06,-15.544 l 6.357,-2.119 c 1.062,-2.474 -1.06,-5.3 -1.06,-5.3 z m -170.281,-56.17 -3.534,-3.886 c 0,0 19.432,-33.916 21.9,-39.566 l 9.539,-0.355 c 0,0 -24.372,41.33 -27.905,43.804 z m 33.849,-51.934 -9.894,0.707 c 0,0 -0.393,-13.779 9.894,-7.772 z m 54.472,-3.531 c 0,0 2.824,-4.945 7.417,-3.886 0,0 2.829,-2.826 6.36,-2.471 l 8.124,3.531 z"
                id="path4513" inkscape:connector-curvature="0" style="fill:#ffffff" />
        </g>
    </g>
</svg>