<svg xmlns="http://www.w3.org/2000/svg" width="38.739" height="43.836" viewBox="0 0 38.739 43.836"><defs><style>.a{fill:#f45683;}</style></defs><g transform="translate(1366.436 644.068)"><path class="a" d="M-1359.245-638.57c0-1.494,0-2.919,0-4.343,0-.94.208-1.154,1.135-1.155h22c.941,0,1.127.2,1.138,1.142.012.963.055,1.926.059,2.89,0,.469-.054.937-.088,1.466h.573q2.831,0,5.662,0c.872,0,1.09.235,1.066,1.115a22.933,22.933,0,0,1-1.7,8.414,11.171,11.171,0,0,1-2.756,4.083,5.277,5.277,0,0,1-3.027,1.44.509.509,0,0,0-.481.388,11.989,11.989,0,0,1-7.765,7.375.474.474,0,0,0-.39.547q.022,2.507,0,5.015a.608.608,0,0,0,.33.583,5.764,5.764,0,0,1,2.6,3.672c.067.3.2.358.468.356,1.47-.008,2.939-.006,4.409,0,.877,0,1.105.231,1.106,1.1q0,1.6,0,3.2c0,.8-.258,1.054-1.066,1.055q-3.2,0-6.4,0h-15.69c-.96,0-1.181-.217-1.181-1.161,0-1.052,0-2.1,0-3.156,0-.774.26-1.033,1.044-1.036,1.484-.005,2.968-.009,4.452,0,.293,0,.429-.076.5-.38a5.751,5.751,0,0,1,2.611-3.662.575.575,0,0,0,.305-.554q-.017-2.529,0-5.058a.452.452,0,0,0-.36-.524,12.062,12.062,0,0,1-7.773-7.378c-.056-.142-.218-.331-.347-.344a6.145,6.145,0,0,1-4.323-2.732,16.025,16.025,0,0,1-2.85-7.059c-.245-1.414-.335-2.856-.452-4.289-.062-.751.227-1.008.994-1.009q2.809,0,5.619,0Zm1.519-3.984V-642q0,6.658.012,13.317c0,.776.011,1.556.09,2.327a10.142,10.142,0,0,0,5.006,8.054,10.186,10.186,0,0,0,11.277-.082,10.04,10.04,0,0,0,4.826-7.66,25.48,25.48,0,0,0,.037-2.975q0-4.843,0-9.685v-.585h-15.015c-.144,0-.289.006-.432-.006a.723.723,0,0,1-.673-.669.726.726,0,0,1,.592-.783,3.581,3.581,0,0,1,.6-.032l14.353,0c.18,0,.36-.018.544-.028v-1.743Zm28.519,5.53h-5.661V-625.1c.229-.086.422-.143.6-.227a5.707,5.707,0,0,0,2.294-2.109A18.981,18.981,0,0,0-1329.207-637.025Zm-30.06,11.91V-637.02h-5.642a22.288,22.288,0,0,0,1.017,5.921,12.679,12.679,0,0,0,2.167,4.236A4.842,4.842,0,0,0-1359.268-625.114Zm22.828,21.072h-21.252v2.258h21.252Zm-15.283-1.59h9.332a4.676,4.676,0,0,0-4.712-3.533A4.6,4.6,0,0,0-1351.723-605.631Zm6.37-4.943v-4.66h-3.432v4.66Z" transform="translate(0 0)"/></g></svg>